<svg width="1440" height="409" viewBox="0 0 1440 409" fill="none" xmlns="http://www.w3.org/2000/svg">
<rect x="165" y="39" width="1110" height="370" rx="20" fill="#063183"/>
<mask id="mask0_2_372" style="mask-type:alpha" maskUnits="userSpaceOnUse" x="165" y="0" width="1110" height="409">
<rect x="165" width="1110" height="409" rx="20" fill="#063183"/>
</mask>
<g mask="url(#mask0_2_372)">
<g clip-path="url(#clip0_2_372)">
<path d="M1053.98 105.188H1051.57V39.196C1051.57 29.0658 1047.56 19.3505 1040.41 12.1874C1033.27 5.02422 1023.58 1.00001 1013.47 1H873.998C863.892 1 854.201 5.02421 847.055 12.1874C839.91 19.3505 835.895 29.0658 835.895 39.196V401.241C835.895 411.371 839.91 421.086 847.055 428.249C854.201 435.413 863.892 439.437 873.998 439.437H1013.47C1023.58 439.437 1033.27 435.412 1040.41 428.249C1047.56 421.086 1051.57 411.371 1051.57 401.241V152.163H1053.98L1053.98 105.188Z" fill="#F4F4F4"/>
<path d="M1015.01 10.9336H996.805C997.642 12.9914 997.962 15.2241 997.736 17.4349C997.509 19.6457 996.744 21.7668 995.507 23.6113C994.271 25.4558 992.601 26.9671 990.644 28.012C988.687 29.0569 986.504 29.6034 984.287 29.6033H904.384C902.167 29.6032 899.984 29.0566 898.028 28.0116C896.071 26.9666 894.401 25.4553 893.164 23.6108C891.928 21.7663 891.163 19.6453 890.937 17.4346C890.71 15.2239 891.03 12.9913 891.867 10.9336H874.863C867.316 10.9336 860.079 13.9388 854.743 19.2882C849.406 24.6376 846.409 31.8929 846.409 39.458V400.977C846.409 408.542 849.406 415.797 854.743 421.147C860.079 426.496 867.316 429.501 874.863 429.501H1015.01C1022.56 429.501 1029.79 426.496 1035.13 421.147C1040.47 415.797 1043.46 408.542 1043.46 400.977V39.4574C1043.46 31.8924 1040.47 24.6372 1035.13 19.288C1029.79 13.9387 1022.56 10.9336 1015.01 10.9336H1015.01Z" fill="white"/>
<path d="M944.936 224.779C931.877 224.779 919.112 220.897 908.254 213.624C897.396 206.351 888.933 196.014 883.936 183.92C878.939 171.826 877.631 158.517 880.179 145.678C882.726 132.839 889.015 121.045 898.248 111.789C907.482 102.532 919.247 96.2283 932.055 93.6744C944.862 91.1205 958.138 92.4313 970.203 97.4409C982.267 102.451 992.579 110.934 999.834 121.819C1007.09 132.703 1010.96 145.5 1010.96 158.591C1010.94 176.139 1003.98 192.962 991.601 205.371C979.223 217.779 962.441 224.759 944.936 224.779ZM944.936 93.6633C932.126 93.6633 919.603 97.4713 908.952 104.606C898.301 111.74 890 121.88 885.098 133.744C880.196 145.608 878.913 158.663 881.412 171.257C883.911 183.852 890.08 195.421 899.138 204.501C908.196 213.582 919.736 219.765 932.3 222.271C944.864 224.776 957.886 223.49 969.721 218.576C981.556 213.662 991.671 205.34 998.788 194.662C1005.91 183.985 1009.7 171.432 1009.7 158.591C1009.68 141.377 1002.85 124.874 990.712 112.702C978.57 100.53 962.107 93.6828 944.936 93.6633Z" fill="#3F3D56"/>
<path d="M969.186 139.363C974.841 134.573 978.276 127.007 977.375 119.64C976.474 112.274 970.895 105.503 963.658 103.938C956.422 102.374 948.172 106.704 945.974 113.791C944.764 100.128 943.37 85.8927 936.124 74.2576C929.563 63.7222 918.199 56.1838 905.883 54.8352C893.566 53.4865 880.599 58.5802 872.918 68.3251C865.237 78.0701 863.356 92.2372 868.736 103.425C872.699 111.667 880 117.801 887.65 122.791C912.056 138.711 942.331 144.09 971.139 139.84L969.186 139.363Z" fill="#CFDEF3"/>
<path d="M885.097 58.8625C895.259 67.1603 904.582 76.4407 912.931 86.5696C925.996 102.367 936.569 120.079 944.281 139.088C944.845 140.474 942.599 141.078 942.041 139.707C929.423 108.813 909.28 81.5838 883.454 60.5092C882.294 59.5625 883.947 57.9237 885.097 58.8625Z" fill="white"/>
<path d="M888.555 289.706C892.376 289.706 895.472 286.602 895.472 282.772C895.472 278.943 892.376 275.838 888.555 275.838C884.735 275.838 881.638 278.943 881.638 282.772C881.638 286.602 884.735 289.706 888.555 289.706Z" fill="#17275F"/>
<path d="M1003.2 287.815H915.169C913.835 287.815 912.556 287.284 911.612 286.338C910.669 285.392 910.139 284.11 910.139 282.772C910.139 281.435 910.669 280.152 911.612 279.206C912.556 278.261 913.835 277.729 915.169 277.729H1003.2C1004.54 277.729 1005.82 278.261 1006.76 279.206C1007.7 280.152 1008.23 281.435 1008.23 282.772C1008.23 284.11 1007.7 285.392 1006.76 286.338C1005.82 287.284 1004.54 287.815 1003.2 287.815Z" fill="#DAE9FF"/>
<path d="M975.9 287.876H914.806C913.456 287.876 912.161 287.338 911.206 286.381C910.251 285.424 909.715 284.126 909.715 282.772C909.715 281.419 910.251 280.12 911.206 279.163C912.161 278.206 913.456 277.668 914.806 277.668H975.9C977.25 277.668 978.545 278.206 979.5 279.163C980.455 280.12 980.991 281.419 980.991 282.772C980.991 284.126 980.455 285.424 979.5 286.381C978.545 287.338 977.25 287.876 975.9 287.876Z" fill="#5784F5"/>
<path d="M888.555 319.963C892.376 319.963 895.472 316.859 895.472 313.029C895.472 309.2 892.376 306.095 888.555 306.095C884.735 306.095 881.638 309.2 881.638 313.029C881.638 316.859 884.735 319.963 888.555 319.963Z" fill="#17275F"/>
<path d="M1003.2 318.072H915.169C913.835 318.072 912.556 317.541 911.612 316.595C910.669 315.65 910.139 314.367 910.139 313.029C910.139 311.692 910.669 310.409 911.612 309.464C912.556 308.518 913.835 307.987 915.169 307.987H1003.2C1004.54 307.987 1005.82 308.518 1006.76 309.464C1007.7 310.409 1008.23 311.692 1008.23 313.029C1008.23 314.367 1007.7 315.65 1006.76 316.595C1005.82 317.541 1004.54 318.072 1003.2 318.072Z" fill="#DAE9FF"/>
<path d="M888.555 350.221C892.376 350.221 895.472 347.117 895.472 343.287C895.472 339.457 892.376 336.353 888.555 336.353C884.735 336.353 881.638 339.457 881.638 343.287C881.638 347.117 884.735 350.221 888.555 350.221Z" fill="#17275F"/>
<path d="M1003.2 348.33H915.169C913.835 348.33 912.556 347.799 911.612 346.853C910.669 345.907 910.139 344.625 910.139 343.287C910.139 341.95 910.669 340.667 911.612 339.721C912.556 338.775 913.835 338.244 915.169 338.244H1003.2C1004.54 338.244 1005.82 338.775 1006.76 339.721C1007.7 340.667 1008.23 341.95 1008.23 343.287C1008.23 344.625 1007.7 345.907 1006.76 346.853C1005.82 347.799 1004.54 348.33 1003.2 348.33Z" fill="#DAE9FF"/>
<path d="M955.778 318.133H914.806C913.456 318.133 912.161 317.596 911.206 316.639C910.251 315.681 909.715 314.383 909.715 313.03C909.715 311.676 910.251 310.378 911.206 309.421C912.161 308.464 913.456 307.926 914.806 307.926H955.778C957.128 307.926 958.423 308.464 959.378 309.421C960.333 310.378 960.869 311.676 960.869 313.03C960.869 314.383 960.333 315.681 959.378 316.639C958.423 317.596 957.128 318.133 955.778 318.133Z" fill="#5784F5"/>
<path d="M992.249 348.391H914.806C913.456 348.391 912.161 347.853 911.206 346.896C910.251 345.939 909.715 344.64 909.715 343.287C909.715 341.933 910.251 340.635 911.206 339.678C912.161 338.721 913.456 338.183 914.806 338.183H992.249C993.599 338.183 994.894 338.721 995.849 339.678C996.804 340.635 997.34 341.933 997.34 343.287C997.34 344.64 996.804 345.939 995.849 346.896C994.894 347.853 993.599 348.391 992.249 348.391Z" fill="#5784F5"/>
<path d="M979.894 148.299H971.251V122.697C971.252 121.945 971.55 121.224 972.081 120.692C972.611 120.161 973.33 119.861 974.081 119.861H977.064C977.814 119.861 978.533 120.161 979.064 120.692C979.594 121.224 979.893 121.945 979.894 122.697V148.299Z" fill="#3F3D56"/>
<path d="M985.133 191.865H902.52L902.223 145.189C902.22 144.468 902.361 143.754 902.639 143.088C902.916 142.423 903.324 141.821 903.838 141.316L924.592 121.053C925.576 120.088 926.895 119.543 928.272 119.533L963.006 119.215C963.794 119.21 964.573 119.379 965.288 119.709C966.004 120.039 966.638 120.522 967.147 121.125L967.15 121.129L983.648 141.411C984.607 142.593 985.132 144.07 985.133 145.594L985.133 191.865Z" fill="#161B3D"/>
<path d="M985.134 191.865H940.738V150.034C940.738 148.759 941.191 147.527 942.016 146.557L961.306 123.886V123.886C961.807 123.296 962.43 122.822 963.132 122.497C963.834 122.172 964.599 122.004 965.372 122.005H965.392C966.169 122.007 966.936 122.18 967.639 122.51C968.343 122.84 968.966 123.32 969.465 123.917L983.882 141.122C984.69 142.088 985.133 143.308 985.134 144.568V191.865Z" fill="#7398F6"/>
<path d="M966.301 175.798H959.878C959.461 175.798 959.062 175.632 958.767 175.336C958.472 175.041 958.306 174.64 958.306 174.222V168.824C958.306 168.406 958.472 168.005 958.767 167.71C959.062 167.414 959.461 167.248 959.878 167.248H966.301C966.718 167.248 967.118 167.414 967.412 167.71C967.707 168.005 967.873 168.406 967.873 168.824V174.222C967.873 174.64 967.707 175.041 967.412 175.336C967.118 175.632 966.718 175.798 966.301 175.798Z" fill="white"/>
<path d="M966.301 161.964H959.878C959.461 161.964 959.062 161.798 958.767 161.502C958.472 161.207 958.306 160.806 958.306 160.388V155.115C958.306 154.697 958.472 154.297 958.767 154.001C959.062 153.706 959.461 153.54 959.878 153.539H966.301C966.718 153.54 967.118 153.706 967.412 154.001C967.707 154.297 967.873 154.697 967.873 155.115V160.388C967.873 160.806 967.707 161.207 967.412 161.502C967.118 161.798 966.718 161.964 966.301 161.964Z" fill="white"/>
<path d="M926.578 173.696H920.155C919.738 173.696 919.339 173.53 919.044 173.234C918.749 172.939 918.583 172.538 918.583 172.121V166.722C918.583 166.304 918.749 165.904 919.044 165.608C919.339 165.313 919.738 165.147 920.155 165.146H926.578C926.995 165.147 927.395 165.313 927.689 165.608C927.984 165.904 928.15 166.304 928.15 166.722V172.121C928.15 172.538 927.984 172.939 927.689 173.234C927.395 173.53 926.995 173.696 926.578 173.696Z" fill="white"/>
<path d="M926.578 159.862H920.155C919.738 159.862 919.339 159.696 919.044 159.4C918.749 159.105 918.583 158.704 918.583 158.286V153.014C918.583 152.596 918.749 152.195 919.044 151.9C919.339 151.604 919.738 151.438 920.155 151.438H926.578C926.995 151.438 927.395 151.604 927.689 151.9C927.984 152.195 928.15 152.596 928.15 153.014V158.286C928.15 158.704 927.984 159.105 927.689 159.4C927.395 159.696 926.995 159.862 926.578 159.862Z" fill="white"/>
<path d="M1001.12 192.411H888.749C888.583 192.411 888.423 192.345 888.305 192.226C888.187 192.108 888.121 191.948 888.121 191.781C888.121 191.614 888.187 191.453 888.305 191.335C888.423 191.217 888.583 191.15 888.749 191.15H1001.12C1001.29 191.15 1001.45 191.217 1001.57 191.335C1001.68 191.453 1001.75 191.614 1001.75 191.781C1001.75 191.948 1001.68 192.108 1001.57 192.226C1001.45 192.345 1001.29 192.411 1001.12 192.411Z" fill="#3F3D56"/>
</g>
</g>
<rect x="245" y="249" width="151" height="50" rx="12" fill="white"/>
<path d="M291.408 278.091C290.801 278.091 290.255 277.987 289.77 277.779C289.284 277.562 288.903 277.259 288.626 276.869C288.348 276.479 288.21 276.024 288.21 275.504H289.796C289.83 275.894 289.982 276.215 290.251 276.466C290.528 276.717 290.914 276.843 291.408 276.843C291.919 276.843 292.318 276.722 292.604 276.479C292.89 276.228 293.033 275.907 293.033 275.517C293.033 275.214 292.942 274.967 292.76 274.776C292.586 274.585 292.365 274.438 292.097 274.334C291.837 274.23 291.473 274.117 291.005 273.996C290.415 273.84 289.934 273.684 289.562 273.528C289.198 273.363 288.886 273.112 288.626 272.774C288.366 272.436 288.236 271.985 288.236 271.422C288.236 270.902 288.366 270.447 288.626 270.057C288.886 269.667 289.25 269.368 289.718 269.16C290.186 268.952 290.727 268.848 291.343 268.848C292.218 268.848 292.933 269.069 293.488 269.511C294.051 269.944 294.363 270.542 294.424 271.305H292.786C292.76 270.976 292.604 270.694 292.318 270.46C292.032 270.226 291.655 270.109 291.187 270.109C290.762 270.109 290.415 270.217 290.147 270.434C289.878 270.651 289.744 270.963 289.744 271.37C289.744 271.647 289.826 271.877 289.991 272.059C290.164 272.232 290.381 272.371 290.641 272.475C290.901 272.579 291.256 272.692 291.707 272.813C292.305 272.978 292.79 273.142 293.163 273.307C293.544 273.472 293.865 273.727 294.125 274.074C294.393 274.412 294.528 274.867 294.528 275.439C294.528 275.898 294.402 276.332 294.151 276.739C293.908 277.146 293.548 277.476 293.072 277.727C292.604 277.97 292.049 278.091 291.408 278.091ZM302.763 270.837V278H301.281V277.155C301.047 277.45 300.74 277.684 300.358 277.857C299.986 278.022 299.587 278.104 299.162 278.104C298.599 278.104 298.092 277.987 297.641 277.753C297.199 277.519 296.848 277.172 296.588 276.713C296.337 276.254 296.211 275.699 296.211 275.049V270.837H297.68V274.828C297.68 275.469 297.841 275.963 298.161 276.31C298.482 276.648 298.92 276.817 299.474 276.817C300.029 276.817 300.467 276.648 300.787 276.31C301.117 275.963 301.281 275.469 301.281 274.828V270.837H302.763ZM306.201 271.903C306.452 271.556 306.794 271.275 307.228 271.058C307.67 270.833 308.159 270.72 308.697 270.72C309.329 270.72 309.901 270.872 310.413 271.175C310.924 271.478 311.327 271.912 311.622 272.475C311.916 273.03 312.064 273.667 312.064 274.386C312.064 275.105 311.916 275.751 311.622 276.323C311.327 276.886 310.92 277.328 310.4 277.649C309.888 277.961 309.321 278.117 308.697 278.117C308.142 278.117 307.648 278.009 307.215 277.792C306.79 277.575 306.452 277.298 306.201 276.96V278H304.719V268.38H306.201V271.903ZM310.556 274.386C310.556 273.892 310.452 273.467 310.244 273.112C310.044 272.748 309.776 272.475 309.438 272.293C309.108 272.102 308.753 272.007 308.372 272.007C307.999 272.007 307.644 272.102 307.306 272.293C306.976 272.484 306.708 272.761 306.5 273.125C306.3 273.489 306.201 273.918 306.201 274.412C306.201 274.906 306.3 275.339 306.5 275.712C306.708 276.076 306.976 276.353 307.306 276.544C307.644 276.735 307.999 276.83 308.372 276.83C308.753 276.83 309.108 276.735 309.438 276.544C309.776 276.345 310.044 276.059 310.244 275.686C310.452 275.313 310.556 274.88 310.556 274.386ZM316.129 278.117C315.566 278.117 315.059 278.017 314.608 277.818C314.166 277.61 313.815 277.333 313.555 276.986C313.295 276.631 313.157 276.236 313.139 275.803H314.673C314.699 276.106 314.842 276.362 315.102 276.57C315.371 276.769 315.705 276.869 316.103 276.869C316.519 276.869 316.84 276.791 317.065 276.635C317.299 276.47 317.416 276.262 317.416 276.011C317.416 275.742 317.286 275.543 317.026 275.413C316.775 275.283 316.372 275.14 315.817 274.984C315.28 274.837 314.842 274.694 314.504 274.555C314.166 274.416 313.872 274.204 313.62 273.918C313.378 273.632 313.256 273.255 313.256 272.787C313.256 272.406 313.369 272.059 313.594 271.747C313.82 271.426 314.14 271.175 314.556 270.993C314.981 270.811 315.466 270.72 316.012 270.72C316.827 270.72 317.481 270.928 317.975 271.344C318.478 271.751 318.747 272.31 318.781 273.021H317.299C317.273 272.7 317.143 272.445 316.909 272.254C316.675 272.063 316.359 271.968 315.96 271.968C315.57 271.968 315.271 272.042 315.063 272.189C314.855 272.336 314.751 272.531 314.751 272.774C314.751 272.965 314.821 273.125 314.959 273.255C315.098 273.385 315.267 273.489 315.466 273.567C315.666 273.636 315.96 273.727 316.35 273.84C316.87 273.979 317.295 274.122 317.624 274.269C317.962 274.408 318.253 274.616 318.495 274.893C318.738 275.17 318.864 275.539 318.872 275.998C318.872 276.405 318.76 276.769 318.534 277.09C318.309 277.411 317.988 277.662 317.572 277.844C317.165 278.026 316.684 278.117 316.129 278.117ZM319.98 274.412C319.98 273.675 320.127 273.03 320.422 272.475C320.725 271.912 321.141 271.478 321.67 271.175C322.198 270.872 322.805 270.72 323.49 270.72C324.356 270.72 325.071 270.928 325.635 271.344C326.207 271.751 326.592 272.336 326.792 273.099H325.193C325.063 272.744 324.855 272.466 324.569 272.267C324.283 272.068 323.923 271.968 323.49 271.968C322.883 271.968 322.398 272.185 322.034 272.618C321.678 273.043 321.501 273.641 321.501 274.412C321.501 275.183 321.678 275.786 322.034 276.219C322.398 276.652 322.883 276.869 323.49 276.869C324.348 276.869 324.915 276.492 325.193 275.738H326.792C326.584 276.466 326.194 277.047 325.622 277.48C325.05 277.905 324.339 278.117 323.49 278.117C322.805 278.117 322.198 277.965 321.67 277.662C321.141 277.35 320.725 276.917 320.422 276.362C320.127 275.799 319.98 275.149 319.98 274.412ZM329.75 271.877C329.967 271.513 330.253 271.231 330.608 271.032C330.972 270.824 331.401 270.72 331.895 270.72V272.254H331.518C330.938 272.254 330.496 272.401 330.192 272.696C329.898 272.991 329.75 273.502 329.75 274.23V278H328.268V270.837H329.75V271.877ZM334.012 269.888C333.743 269.888 333.518 269.797 333.336 269.615C333.154 269.433 333.063 269.208 333.063 268.939C333.063 268.67 333.154 268.445 333.336 268.263C333.518 268.081 333.743 267.99 334.012 267.99C334.272 267.99 334.493 268.081 334.675 268.263C334.857 268.445 334.948 268.67 334.948 268.939C334.948 269.208 334.857 269.433 334.675 269.615C334.493 269.797 334.272 269.888 334.012 269.888ZM334.74 270.837V278H333.258V270.837H334.74ZM338.167 271.903C338.419 271.556 338.761 271.275 339.194 271.058C339.636 270.833 340.126 270.72 340.663 270.72C341.296 270.72 341.868 270.872 342.379 271.175C342.891 271.478 343.294 271.912 343.588 272.475C343.883 273.03 344.03 273.667 344.03 274.386C344.03 275.105 343.883 275.751 343.588 276.323C343.294 276.886 342.886 277.328 342.366 277.649C341.855 277.961 341.287 278.117 340.663 278.117C340.109 278.117 339.615 278.009 339.181 277.792C338.757 277.575 338.419 277.298 338.167 276.96V278H336.685V268.38H338.167V271.903ZM342.522 274.386C342.522 273.892 342.418 273.467 342.21 273.112C342.011 272.748 341.742 272.475 341.404 272.293C341.075 272.102 340.72 272.007 340.338 272.007C339.966 272.007 339.61 272.102 339.272 272.293C338.943 272.484 338.674 272.761 338.466 273.125C338.267 273.489 338.167 273.918 338.167 274.412C338.167 274.906 338.267 275.339 338.466 275.712C338.674 276.076 338.943 276.353 339.272 276.544C339.61 276.735 339.966 276.83 340.338 276.83C340.72 276.83 341.075 276.735 341.404 276.544C341.742 276.345 342.011 276.059 342.21 275.686C342.418 275.313 342.522 274.88 342.522 274.386ZM352.061 274.243C352.061 274.512 352.044 274.754 352.009 274.971H346.536C346.579 275.543 346.792 276.002 347.173 276.349C347.554 276.696 348.022 276.869 348.577 276.869C349.374 276.869 349.938 276.535 350.267 275.868H351.866C351.649 276.527 351.255 277.068 350.683 277.493C350.12 277.909 349.418 278.117 348.577 278.117C347.892 278.117 347.277 277.965 346.731 277.662C346.194 277.35 345.769 276.917 345.457 276.362C345.154 275.799 345.002 275.149 345.002 274.412C345.002 273.675 345.149 273.03 345.444 272.475C345.747 271.912 346.168 271.478 346.705 271.175C347.251 270.872 347.875 270.72 348.577 270.72C349.253 270.72 349.855 270.867 350.384 271.162C350.913 271.457 351.324 271.873 351.619 272.41C351.914 272.939 352.061 273.55 352.061 274.243ZM350.514 273.775C350.505 273.229 350.31 272.791 349.929 272.462C349.548 272.133 349.075 271.968 348.512 271.968C348.001 271.968 347.563 272.133 347.199 272.462C346.835 272.783 346.618 273.22 346.549 273.775H350.514Z" fill="#002366"/>
<path d="M255.85 179.245C254.147 179.245 252.607 178.953 251.23 178.37C249.877 177.787 248.803 176.947 248.01 175.85C247.217 174.753 246.808 173.458 246.785 171.965H252.035C252.105 172.968 252.455 173.762 253.085 174.345C253.738 174.928 254.625 175.22 255.745 175.22C256.888 175.22 257.787 174.952 258.44 174.415C259.093 173.855 259.42 173.132 259.42 172.245C259.42 171.522 259.198 170.927 258.755 170.46C258.312 169.993 257.752 169.632 257.075 169.375C256.422 169.095 255.512 168.792 254.345 168.465C252.758 167.998 251.463 167.543 250.46 167.1C249.48 166.633 248.628 165.945 247.905 165.035C247.205 164.102 246.855 162.865 246.855 161.325C246.855 159.878 247.217 158.618 247.94 157.545C248.663 156.472 249.678 155.655 250.985 155.095C252.292 154.512 253.785 154.22 255.465 154.22C257.985 154.22 260.027 154.838 261.59 156.075C263.177 157.288 264.052 158.992 264.215 161.185H258.825C258.778 160.345 258.417 159.657 257.74 159.12C257.087 158.56 256.212 158.28 255.115 158.28C254.158 158.28 253.388 158.525 252.805 159.015C252.245 159.505 251.965 160.217 251.965 161.15C251.965 161.803 252.175 162.352 252.595 162.795C253.038 163.215 253.575 163.565 254.205 163.845C254.858 164.102 255.768 164.405 256.935 164.755C258.522 165.222 259.817 165.688 260.82 166.155C261.823 166.622 262.687 167.322 263.41 168.255C264.133 169.188 264.495 170.413 264.495 171.93C264.495 173.237 264.157 174.45 263.48 175.57C262.803 176.69 261.812 177.588 260.505 178.265C259.198 178.918 257.647 179.245 255.85 179.245ZM287.048 159.61V179H282.113V176.55C281.483 177.39 280.655 178.055 279.628 178.545C278.625 179.012 277.528 179.245 276.338 179.245C274.821 179.245 273.48 178.93 272.313 178.3C271.146 177.647 270.225 176.702 269.548 175.465C268.895 174.205 268.568 172.712 268.568 170.985V159.61H273.468V170.285C273.468 171.825 273.853 173.015 274.623 173.855C275.393 174.672 276.443 175.08 277.773 175.08C279.126 175.08 280.188 174.672 280.958 173.855C281.728 173.015 282.113 171.825 282.113 170.285V159.61H287.048ZM296.783 162.445C297.413 161.512 298.276 160.753 299.373 160.17C300.493 159.587 301.764 159.295 303.188 159.295C304.844 159.295 306.338 159.703 307.668 160.52C309.021 161.337 310.083 162.503 310.853 164.02C311.646 165.513 312.043 167.252 312.043 169.235C312.043 171.218 311.646 172.98 310.853 174.52C310.083 176.037 309.021 177.215 307.668 178.055C306.338 178.895 304.844 179.315 303.188 179.315C301.741 179.315 300.469 179.035 299.373 178.475C298.299 177.892 297.436 177.145 296.783 176.235V179H291.883V153.1H296.783V162.445ZM307.038 169.235C307.038 168.068 306.793 167.065 306.303 166.225C305.836 165.362 305.206 164.708 304.413 164.265C303.643 163.822 302.803 163.6 301.893 163.6C301.006 163.6 300.166 163.833 299.373 164.3C298.603 164.743 297.973 165.397 297.483 166.26C297.016 167.123 296.783 168.138 296.783 169.305C296.783 170.472 297.016 171.487 297.483 172.35C297.973 173.213 298.603 173.878 299.373 174.345C300.166 174.788 301.006 175.01 301.893 175.01C302.803 175.01 303.643 174.777 304.413 174.31C305.206 173.843 305.836 173.178 306.303 172.315C306.793 171.452 307.038 170.425 307.038 169.235ZM323.023 179.315C321.437 179.315 320.013 179.035 318.753 178.475C317.493 177.892 316.49 177.11 315.743 176.13C315.02 175.15 314.623 174.065 314.553 172.875H319.488C319.582 173.622 319.943 174.24 320.573 174.73C321.227 175.22 322.032 175.465 322.988 175.465C323.922 175.465 324.645 175.278 325.158 174.905C325.695 174.532 325.963 174.053 325.963 173.47C325.963 172.84 325.637 172.373 324.983 172.07C324.353 171.743 323.338 171.393 321.938 171.02C320.492 170.67 319.302 170.308 318.368 169.935C317.458 169.562 316.665 168.99 315.988 168.22C315.335 167.45 315.008 166.412 315.008 165.105C315.008 164.032 315.312 163.052 315.918 162.165C316.548 161.278 317.435 160.578 318.578 160.065C319.745 159.552 321.11 159.295 322.673 159.295C324.983 159.295 326.827 159.878 328.203 161.045C329.58 162.188 330.338 163.74 330.478 165.7H325.788C325.718 164.93 325.392 164.323 324.808 163.88C324.248 163.413 323.49 163.18 322.533 163.18C321.647 163.18 320.958 163.343 320.468 163.67C320.002 163.997 319.768 164.452 319.768 165.035C319.768 165.688 320.095 166.19 320.748 166.54C321.402 166.867 322.417 167.205 323.793 167.555C325.193 167.905 326.348 168.267 327.258 168.64C328.168 169.013 328.95 169.597 329.603 170.39C330.28 171.16 330.63 172.187 330.653 173.47C330.653 174.59 330.338 175.593 329.708 176.48C329.102 177.367 328.215 178.067 327.048 178.58C325.905 179.07 324.563 179.315 323.023 179.315ZM333.416 169.305C333.416 167.298 333.824 165.548 334.641 164.055C335.457 162.538 336.589 161.372 338.036 160.555C339.482 159.715 341.139 159.295 343.006 159.295C345.409 159.295 347.392 159.902 348.956 161.115C350.542 162.305 351.604 163.985 352.141 166.155H346.856C346.576 165.315 346.097 164.662 345.421 164.195C344.767 163.705 343.951 163.46 342.971 163.46C341.571 163.46 340.462 163.973 339.646 165C338.829 166.003 338.421 167.438 338.421 169.305C338.421 171.148 338.829 172.583 339.646 173.61C340.462 174.613 341.571 175.115 342.971 175.115C344.954 175.115 346.249 174.228 346.856 172.455H352.141C351.604 174.555 350.542 176.223 348.956 177.46C347.369 178.697 345.386 179.315 343.006 179.315C341.139 179.315 339.482 178.907 338.036 178.09C336.589 177.25 335.457 176.083 334.641 174.59C333.824 173.073 333.416 171.312 333.416 169.305ZM360.63 162.62C361.26 161.593 362.077 160.788 363.08 160.205C364.107 159.622 365.274 159.33 366.58 159.33V164.475H365.285C363.745 164.475 362.579 164.837 361.785 165.56C361.015 166.283 360.63 167.543 360.63 169.34V179H355.73V159.61H360.63V162.62ZM372.366 157.3C371.502 157.3 370.779 157.032 370.196 156.495C369.636 155.935 369.356 155.247 369.356 154.43C369.356 153.613 369.636 152.937 370.196 152.4C370.779 151.84 371.502 151.56 372.366 151.56C373.229 151.56 373.941 151.84 374.501 152.4C375.084 152.937 375.376 153.613 375.376 154.43C375.376 155.247 375.084 155.935 374.501 156.495C373.941 157.032 373.229 157.3 372.366 157.3ZM374.781 159.61V179H369.881V159.61H374.781ZM384.522 162.445C385.152 161.512 386.015 160.753 387.112 160.17C388.232 159.587 389.504 159.295 390.927 159.295C392.584 159.295 394.077 159.703 395.407 160.52C396.76 161.337 397.822 162.503 398.592 164.02C399.385 165.513 399.782 167.252 399.782 169.235C399.782 171.218 399.385 172.98 398.592 174.52C397.822 176.037 396.76 177.215 395.407 178.055C394.077 178.895 392.584 179.315 390.927 179.315C389.48 179.315 388.209 179.035 387.112 178.475C386.039 177.892 385.175 177.145 384.522 176.235V179H379.622V153.1H384.522V162.445ZM394.777 169.235C394.777 168.068 394.532 167.065 394.042 166.225C393.575 165.362 392.945 164.708 392.152 164.265C391.382 163.822 390.542 163.6 389.632 163.6C388.745 163.6 387.905 163.833 387.112 164.3C386.342 164.743 385.712 165.397 385.222 166.26C384.755 167.123 384.522 168.138 384.522 169.305C384.522 170.472 384.755 171.487 385.222 172.35C385.712 173.213 386.342 173.878 387.112 174.345C387.905 174.788 388.745 175.01 389.632 175.01C390.542 175.01 391.382 174.777 392.152 174.31C392.945 173.843 393.575 173.178 394.042 172.315C394.532 171.452 394.777 170.425 394.777 169.235ZM421.368 168.885C421.368 169.585 421.321 170.215 421.228 170.775H407.053C407.169 172.175 407.659 173.272 408.523 174.065C409.386 174.858 410.448 175.255 411.708 175.255C413.528 175.255 414.823 174.473 415.593 172.91H420.878C420.318 174.777 419.244 176.317 417.658 177.53C416.071 178.72 414.123 179.315 411.813 179.315C409.946 179.315 408.266 178.907 406.773 178.09C405.303 177.25 404.148 176.072 403.308 174.555C402.491 173.038 402.083 171.288 402.083 169.305C402.083 167.298 402.491 165.537 403.308 164.02C404.124 162.503 405.268 161.337 406.738 160.52C408.208 159.703 409.899 159.295 411.813 159.295C413.656 159.295 415.301 159.692 416.748 160.485C418.218 161.278 419.349 162.41 420.143 163.88C420.959 165.327 421.368 166.995 421.368 168.885ZM416.293 167.485C416.269 166.225 415.814 165.222 414.928 164.475C414.041 163.705 412.956 163.32 411.673 163.32C410.459 163.32 409.433 163.693 408.593 164.44C407.776 165.163 407.274 166.178 407.088 167.485H416.293ZM438.989 163.635V173.015C438.989 173.668 439.141 174.147 439.444 174.45C439.771 174.73 440.307 174.87 441.054 174.87H443.329V179H440.249C436.119 179 434.054 176.993 434.054 172.98V163.635H431.744V159.61H434.054V154.815H438.989V159.61H443.329V163.635H438.989ZM455.463 179.315C453.597 179.315 451.917 178.907 450.423 178.09C448.93 177.25 447.752 176.072 446.888 174.555C446.048 173.038 445.628 171.288 445.628 169.305C445.628 167.322 446.06 165.572 446.923 164.055C447.81 162.538 449.012 161.372 450.528 160.555C452.045 159.715 453.737 159.295 455.603 159.295C457.47 159.295 459.162 159.715 460.678 160.555C462.195 161.372 463.385 162.538 464.248 164.055C465.135 165.572 465.578 167.322 465.578 169.305C465.578 171.288 465.123 173.038 464.213 174.555C463.327 176.072 462.113 177.25 460.573 178.09C459.057 178.907 457.353 179.315 455.463 179.315ZM455.463 175.045C456.35 175.045 457.178 174.835 457.948 174.415C458.742 173.972 459.372 173.318 459.838 172.455C460.305 171.592 460.538 170.542 460.538 169.305C460.538 167.462 460.048 166.05 459.068 165.07C458.112 164.067 456.933 163.565 455.533 163.565C454.133 163.565 452.955 164.067 451.998 165.07C451.065 166.05 450.598 167.462 450.598 169.305C450.598 171.148 451.053 172.572 451.963 173.575C452.897 174.555 454.063 175.045 455.463 175.045ZM486.123 179.315C484.256 179.315 482.576 178.907 481.083 178.09C479.589 177.25 478.411 176.072 477.548 174.555C476.708 173.038 476.288 171.288 476.288 169.305C476.288 167.322 476.719 165.572 477.583 164.055C478.469 162.538 479.671 161.372 481.188 160.555C482.704 159.715 484.396 159.295 486.263 159.295C488.129 159.295 489.821 159.715 491.338 160.555C492.854 161.372 494.044 162.538 494.908 164.055C495.794 165.572 496.238 167.322 496.238 169.305C496.238 171.288 495.783 173.038 494.873 174.555C493.986 176.072 492.773 177.25 491.233 178.09C489.716 178.907 488.013 179.315 486.123 179.315ZM486.123 175.045C487.009 175.045 487.838 174.835 488.608 174.415C489.401 173.972 490.031 173.318 490.498 172.455C490.964 171.592 491.198 170.542 491.198 169.305C491.198 167.462 490.708 166.05 489.728 165.07C488.771 164.067 487.593 163.565 486.193 163.565C484.793 163.565 483.614 164.067 482.658 165.07C481.724 166.05 481.258 167.462 481.258 169.305C481.258 171.148 481.713 172.572 482.623 173.575C483.556 174.555 484.723 175.045 486.123 175.045ZM518.137 159.61V179H513.202V176.55C512.572 177.39 511.744 178.055 510.717 178.545C509.714 179.012 508.617 179.245 507.427 179.245C505.91 179.245 504.569 178.93 503.402 178.3C502.235 177.647 501.314 176.702 500.637 175.465C499.984 174.205 499.657 172.712 499.657 170.985V159.61H504.557V170.285C504.557 171.825 504.942 173.015 505.712 173.855C506.482 174.672 507.532 175.08 508.862 175.08C510.215 175.08 511.277 174.672 512.047 173.855C512.817 173.015 513.202 171.825 513.202 170.285V159.61H518.137ZM527.872 162.62C528.502 161.593 529.318 160.788 530.322 160.205C531.348 159.622 532.515 159.33 533.822 159.33V164.475H532.527C530.987 164.475 529.82 164.837 529.027 165.56C528.257 166.283 527.872 167.543 527.872 169.34V179H522.972V159.61H527.872V162.62ZM566.357 179H561.457L550.362 162.235V179H545.462V154.535H550.362L561.457 171.335V154.535H566.357V179ZM589.224 168.885C589.224 169.585 589.178 170.215 589.084 170.775H574.909C575.026 172.175 575.516 173.272 576.379 174.065C577.243 174.858 578.304 175.255 579.564 175.255C581.384 175.255 582.679 174.473 583.449 172.91H588.734C588.174 174.777 587.101 176.317 585.514 177.53C583.928 178.72 581.979 179.315 579.669 179.315C577.803 179.315 576.123 178.907 574.629 178.09C573.159 177.25 572.004 176.072 571.164 174.555C570.348 173.038 569.939 171.288 569.939 169.305C569.939 167.298 570.348 165.537 571.164 164.02C571.981 162.503 573.124 161.337 574.594 160.52C576.064 159.703 577.756 159.295 579.669 159.295C581.513 159.295 583.158 159.692 584.604 160.485C586.074 161.278 587.206 162.41 587.999 163.88C588.816 165.327 589.224 166.995 589.224 168.885ZM584.149 167.485C584.126 166.225 583.671 165.222 582.784 164.475C581.898 163.705 580.813 163.32 579.529 163.32C578.316 163.32 577.289 163.693 576.449 164.44C575.633 165.163 575.131 166.178 574.944 167.485H584.149ZM619.681 159.61L614.011 179H608.726L605.191 165.455L601.656 179H596.336L590.631 159.61H595.601L599.031 174.38L602.741 159.61H607.921L611.561 174.345L614.991 159.61H619.681ZM629.752 179.315C628.165 179.315 626.742 179.035 625.482 178.475C624.222 177.892 623.219 177.11 622.472 176.13C621.749 175.15 621.352 174.065 621.282 172.875H626.217C626.31 173.622 626.672 174.24 627.302 174.73C627.955 175.22 628.76 175.465 629.717 175.465C630.65 175.465 631.374 175.278 631.887 174.905C632.424 174.532 632.692 174.053 632.692 173.47C632.692 172.84 632.365 172.373 631.712 172.07C631.082 171.743 630.067 171.393 628.667 171.02C627.22 170.67 626.03 170.308 625.097 169.935C624.187 169.562 623.394 168.99 622.717 168.22C622.064 167.45 621.737 166.412 621.737 165.105C621.737 164.032 622.04 163.052 622.647 162.165C623.277 161.278 624.164 160.578 625.307 160.065C626.474 159.552 627.839 159.295 629.402 159.295C631.712 159.295 633.555 159.878 634.932 161.045C636.309 162.188 637.067 163.74 637.207 165.7H632.517C632.447 164.93 632.12 164.323 631.537 163.88C630.977 163.413 630.219 163.18 629.262 163.18C628.375 163.18 627.687 163.343 627.197 163.67C626.73 163.997 626.497 164.452 626.497 165.035C626.497 165.688 626.824 166.19 627.477 166.54C628.13 166.867 629.145 167.205 630.522 167.555C631.922 167.905 633.077 168.267 633.987 168.64C634.897 169.013 635.679 169.597 636.332 170.39C637.009 171.16 637.359 172.187 637.382 173.47C637.382 174.59 637.067 175.593 636.437 176.48C635.83 177.367 634.944 178.067 633.777 178.58C632.634 179.07 631.292 179.315 629.752 179.315ZM646.304 153.1V179H641.404V153.1H646.304ZM669.17 168.885C669.17 169.585 669.124 170.215 669.03 170.775H654.855C654.972 172.175 655.462 173.272 656.325 174.065C657.189 174.858 658.25 175.255 659.51 175.255C661.33 175.255 662.625 174.473 663.395 172.91H668.68C668.12 174.777 667.047 176.317 665.46 177.53C663.874 178.72 661.925 179.315 659.615 179.315C657.749 179.315 656.069 178.907 654.575 178.09C653.105 177.25 651.95 176.072 651.11 174.555C650.294 173.038 649.885 171.288 649.885 169.305C649.885 167.298 650.294 165.537 651.11 164.02C651.927 162.503 653.07 161.337 654.54 160.52C656.01 159.703 657.702 159.295 659.615 159.295C661.459 159.295 663.104 159.692 664.55 160.485C666.02 161.278 667.152 162.41 667.945 163.88C668.762 165.327 669.17 166.995 669.17 168.885ZM664.095 167.485C664.072 166.225 663.617 165.222 662.73 164.475C661.844 163.705 660.759 163.32 659.475 163.32C658.262 163.32 657.235 163.693 656.395 164.44C655.579 165.163 655.077 166.178 654.89 167.485H664.095ZM678.452 163.635V173.015C678.452 173.668 678.604 174.147 678.907 174.45C679.234 174.73 679.77 174.87 680.517 174.87H682.792V179H679.712C675.582 179 673.517 176.993 673.517 172.98V163.635H671.207V159.61H673.517V154.815H678.452V159.61H682.792V163.635H678.452ZM692.021 163.635V173.015C692.021 173.668 692.173 174.147 692.476 174.45C692.803 174.73 693.34 174.87 694.086 174.87H696.361V179H693.281C689.151 179 687.086 176.993 687.086 172.98V163.635H684.776V159.61H687.086V154.815H692.021V159.61H696.361V163.635H692.021ZM717.911 168.885C717.911 169.585 717.864 170.215 717.771 170.775H703.596C703.712 172.175 704.202 173.272 705.066 174.065C705.929 174.858 706.991 175.255 708.251 175.255C710.071 175.255 711.366 174.473 712.136 172.91H717.421C716.861 174.777 715.787 176.317 714.201 177.53C712.614 178.72 710.666 179.315 708.356 179.315C706.489 179.315 704.809 178.907 703.316 178.09C701.846 177.25 700.691 176.072 699.851 174.555C699.034 173.038 698.626 171.288 698.626 169.305C698.626 167.298 699.034 165.537 699.851 164.02C700.667 162.503 701.811 161.337 703.281 160.52C704.751 159.703 706.442 159.295 708.356 159.295C710.199 159.295 711.844 159.692 713.291 160.485C714.761 161.278 715.892 162.41 716.686 163.88C717.502 165.327 717.911 166.995 717.911 168.885ZM712.836 167.485C712.812 166.225 712.357 165.222 711.471 164.475C710.584 163.705 709.499 163.32 708.216 163.32C707.002 163.32 705.976 163.693 705.136 164.44C704.319 165.163 703.817 166.178 703.631 167.485H712.836ZM726.387 162.62C727.017 161.593 727.834 160.788 728.837 160.205C729.864 159.622 731.031 159.33 732.337 159.33V164.475H731.042C729.502 164.475 728.336 164.837 727.542 165.56C726.772 166.283 726.387 167.543 726.387 169.34V179H721.487V159.61H726.387V162.62ZM741.973 154.15L741.413 171.055H737.283L736.688 154.15H741.973ZM739.453 179.245C738.566 179.245 737.831 178.977 737.248 178.44C736.688 177.88 736.408 177.192 736.408 176.375C736.408 175.558 736.688 174.882 737.248 174.345C737.831 173.785 738.566 173.505 739.453 173.505C740.316 173.505 741.028 173.785 741.588 174.345C742.148 174.882 742.428 175.558 742.428 176.375C742.428 177.192 742.148 177.88 741.588 178.44C741.028 178.977 740.316 179.245 739.453 179.245Z" fill="white"/>
<path opacity="0.75" d="M249.768 220.112C249.032 220.112 248.371 219.984 247.784 219.728C247.208 219.461 246.755 219.099 246.424 218.64C246.093 218.171 245.923 217.632 245.912 217.024H247.464C247.517 217.547 247.731 217.989 248.104 218.352C248.488 218.704 249.043 218.88 249.768 218.88C250.461 218.88 251.005 218.709 251.4 218.368C251.805 218.016 252.008 217.568 252.008 217.024C252.008 216.597 251.891 216.251 251.656 215.984C251.421 215.717 251.128 215.515 250.776 215.376C250.424 215.237 249.949 215.088 249.352 214.928C248.616 214.736 248.024 214.544 247.576 214.352C247.139 214.16 246.76 213.861 246.44 213.456C246.131 213.04 245.976 212.485 245.976 211.792C245.976 211.184 246.131 210.645 246.44 210.176C246.749 209.707 247.181 209.344 247.736 209.088C248.301 208.832 248.947 208.704 249.672 208.704C250.717 208.704 251.571 208.965 252.232 209.488C252.904 210.011 253.283 210.704 253.368 211.568H251.768C251.715 211.141 251.491 210.768 251.096 210.448C250.701 210.117 250.179 209.952 249.528 209.952C248.92 209.952 248.424 210.112 248.04 210.432C247.656 210.741 247.464 211.179 247.464 211.744C247.464 212.149 247.576 212.48 247.8 212.736C248.035 212.992 248.317 213.189 248.648 213.328C248.989 213.456 249.464 213.605 250.072 213.776C250.808 213.979 251.4 214.181 251.848 214.384C252.296 214.576 252.68 214.88 253 215.296C253.32 215.701 253.48 216.256 253.48 216.96C253.48 217.504 253.336 218.016 253.048 218.496C252.76 218.976 252.333 219.365 251.768 219.664C251.203 219.963 250.536 220.112 249.768 220.112ZM263.399 211.232V220H261.943V218.704C261.665 219.152 261.276 219.504 260.775 219.76C260.284 220.005 259.74 220.128 259.143 220.128C258.46 220.128 257.847 219.989 257.303 219.712C256.759 219.424 256.327 218.997 256.007 218.432C255.697 217.867 255.543 217.179 255.543 216.368V211.232H256.983V216.176C256.983 217.04 257.201 217.707 257.639 218.176C258.076 218.635 258.673 218.864 259.431 218.864C260.209 218.864 260.823 218.624 261.271 218.144C261.719 217.664 261.943 216.965 261.943 216.048V211.232H263.399ZM267.313 212.864C267.612 212.341 268.049 211.915 268.625 211.584C269.201 211.253 269.857 211.088 270.593 211.088C271.382 211.088 272.092 211.275 272.721 211.648C273.35 212.021 273.846 212.549 274.209 213.232C274.572 213.904 274.753 214.688 274.753 215.584C274.753 216.469 274.572 217.259 274.209 217.952C273.846 218.645 273.345 219.184 272.705 219.568C272.076 219.952 271.372 220.144 270.593 220.144C269.836 220.144 269.169 219.979 268.593 219.648C268.028 219.317 267.601 218.896 267.313 218.384V220H265.857V208.16H267.313V212.864ZM273.265 215.584C273.265 214.923 273.132 214.347 272.865 213.856C272.598 213.365 272.236 212.992 271.777 212.736C271.329 212.48 270.833 212.352 270.289 212.352C269.756 212.352 269.26 212.485 268.801 212.752C268.353 213.008 267.99 213.387 267.713 213.888C267.446 214.379 267.313 214.949 267.313 215.6C267.313 216.261 267.446 216.843 267.713 217.344C267.99 217.835 268.353 218.213 268.801 218.48C269.26 218.736 269.756 218.864 270.289 218.864C270.833 218.864 271.329 218.736 271.777 218.48C272.236 218.213 272.598 217.835 272.865 217.344C273.132 216.843 273.265 216.256 273.265 215.584ZM279.774 220.144C279.102 220.144 278.499 220.032 277.966 219.808C277.432 219.573 277.011 219.253 276.702 218.848C276.392 218.432 276.222 217.957 276.19 217.424H277.694C277.736 217.861 277.939 218.219 278.302 218.496C278.675 218.773 279.16 218.912 279.758 218.912C280.312 218.912 280.75 218.789 281.07 218.544C281.39 218.299 281.55 217.989 281.55 217.616C281.55 217.232 281.379 216.949 281.038 216.768C280.696 216.576 280.168 216.389 279.454 216.208C278.803 216.037 278.27 215.867 277.854 215.696C277.448 215.515 277.096 215.253 276.798 214.912C276.51 214.56 276.366 214.101 276.366 213.536C276.366 213.088 276.499 212.677 276.766 212.304C277.032 211.931 277.411 211.637 277.902 211.424C278.392 211.2 278.952 211.088 279.582 211.088C280.552 211.088 281.336 211.333 281.934 211.824C282.531 212.315 282.851 212.987 282.894 213.84H281.438C281.406 213.381 281.219 213.013 280.878 212.736C280.547 212.459 280.099 212.32 279.534 212.32C279.011 212.32 278.595 212.432 278.286 212.656C277.976 212.88 277.822 213.173 277.822 213.536C277.822 213.824 277.912 214.064 278.094 214.256C278.286 214.437 278.52 214.587 278.798 214.704C279.086 214.811 279.48 214.933 279.982 215.072C280.611 215.243 281.123 215.413 281.518 215.584C281.912 215.744 282.248 215.989 282.526 216.32C282.814 216.651 282.963 217.083 282.974 217.616C282.974 218.096 282.84 218.528 282.574 218.912C282.307 219.296 281.928 219.6 281.438 219.824C280.958 220.037 280.403 220.144 279.774 220.144ZM284.485 215.6C284.485 214.693 284.666 213.904 285.029 213.232C285.392 212.549 285.893 212.021 286.533 211.648C287.184 211.275 287.925 211.088 288.757 211.088C289.834 211.088 290.72 211.349 291.413 211.872C292.117 212.395 292.581 213.12 292.805 214.048H291.237C291.088 213.515 290.794 213.093 290.357 212.784C289.93 212.475 289.397 212.32 288.757 212.32C287.925 212.32 287.253 212.608 286.741 213.184C286.229 213.749 285.973 214.555 285.973 215.6C285.973 216.656 286.229 217.472 286.741 218.048C287.253 218.624 287.925 218.912 288.757 218.912C289.397 218.912 289.93 218.763 290.357 218.464C290.784 218.165 291.077 217.739 291.237 217.184H292.805C292.57 218.08 292.101 218.8 291.397 219.344C290.693 219.877 289.813 220.144 288.757 220.144C287.925 220.144 287.184 219.957 286.533 219.584C285.893 219.211 285.392 218.683 285.029 218C284.666 217.317 284.485 216.517 284.485 215.6ZM296.204 212.656C296.46 212.155 296.822 211.765 297.292 211.488C297.772 211.211 298.353 211.072 299.036 211.072V212.576H298.652C297.02 212.576 296.204 213.461 296.204 215.232V220H294.748V211.232H296.204V212.656ZM301.468 209.808C301.191 209.808 300.956 209.712 300.764 209.52C300.572 209.328 300.476 209.093 300.476 208.816C300.476 208.539 300.572 208.304 300.764 208.112C300.956 207.92 301.191 207.824 301.468 207.824C301.735 207.824 301.959 207.92 302.14 208.112C302.332 208.304 302.428 208.539 302.428 208.816C302.428 209.093 302.332 209.328 302.14 209.52C301.959 209.712 301.735 209.808 301.468 209.808ZM302.172 211.232V220H300.716V211.232H302.172ZM306.11 212.864C306.409 212.341 306.846 211.915 307.422 211.584C307.998 211.253 308.654 211.088 309.39 211.088C310.179 211.088 310.889 211.275 311.518 211.648C312.147 212.021 312.643 212.549 313.006 213.232C313.369 213.904 313.55 214.688 313.55 215.584C313.55 216.469 313.369 217.259 313.006 217.952C312.643 218.645 312.142 219.184 311.502 219.568C310.873 219.952 310.169 220.144 309.39 220.144C308.633 220.144 307.966 219.979 307.39 219.648C306.825 219.317 306.398 218.896 306.11 218.384V220H304.654V208.16H306.11V212.864ZM312.062 215.584C312.062 214.923 311.929 214.347 311.662 213.856C311.395 213.365 311.033 212.992 310.574 212.736C310.126 212.48 309.63 212.352 309.086 212.352C308.553 212.352 308.057 212.485 307.598 212.752C307.15 213.008 306.787 213.387 306.51 213.888C306.243 214.379 306.11 214.949 306.11 215.6C306.11 216.261 306.243 216.843 306.51 217.344C306.787 217.835 307.15 218.213 307.598 218.48C308.057 218.736 308.553 218.864 309.086 218.864C309.63 218.864 310.126 218.736 310.574 218.48C311.033 218.213 311.395 217.835 311.662 217.344C311.929 216.843 312.062 216.256 312.062 215.584ZM323.466 215.28C323.466 215.557 323.45 215.851 323.418 216.16H316.41C316.464 217.024 316.757 217.701 317.29 218.192C317.834 218.672 318.49 218.912 319.258 218.912C319.888 218.912 320.41 218.768 320.826 218.48C321.253 218.181 321.552 217.787 321.722 217.296H323.29C323.056 218.139 322.586 218.827 321.882 219.36C321.178 219.883 320.304 220.144 319.258 220.144C318.426 220.144 317.68 219.957 317.018 219.584C316.368 219.211 315.856 218.683 315.482 218C315.109 217.307 314.922 216.507 314.922 215.6C314.922 214.693 315.104 213.899 315.466 213.216C315.829 212.533 316.336 212.011 316.986 211.648C317.648 211.275 318.405 211.088 319.258 211.088C320.09 211.088 320.826 211.269 321.466 211.632C322.106 211.995 322.597 212.496 322.938 213.136C323.29 213.765 323.466 214.48 323.466 215.28ZM321.962 214.976C321.962 214.421 321.84 213.947 321.594 213.552C321.349 213.147 321.013 212.843 320.586 212.64C320.17 212.427 319.706 212.32 319.194 212.32C318.458 212.32 317.829 212.555 317.306 213.024C316.794 213.493 316.501 214.144 316.426 214.976H321.962ZM331.43 212.432V217.6C331.43 218.027 331.521 218.331 331.702 218.512C331.883 218.683 332.198 218.768 332.646 218.768H333.718V220H332.406C331.595 220 330.987 219.813 330.582 219.44C330.177 219.067 329.974 218.453 329.974 217.6V212.432H328.838V211.232H329.974V209.024H331.43V211.232H333.718V212.432H331.43ZM339.306 220.144C338.485 220.144 337.738 219.957 337.066 219.584C336.405 219.211 335.882 218.683 335.498 218C335.125 217.307 334.938 216.507 334.938 215.6C334.938 214.704 335.13 213.915 335.514 213.232C335.909 212.539 336.442 212.011 337.114 211.648C337.786 211.275 338.538 211.088 339.37 211.088C340.202 211.088 340.954 211.275 341.626 211.648C342.298 212.011 342.826 212.533 343.21 213.216C343.605 213.899 343.802 214.693 343.802 215.6C343.802 216.507 343.599 217.307 343.194 218C342.799 218.683 342.261 219.211 341.578 219.584C340.895 219.957 340.138 220.144 339.306 220.144ZM339.306 218.864C339.829 218.864 340.319 218.741 340.778 218.496C341.237 218.251 341.605 217.883 341.882 217.392C342.17 216.901 342.314 216.304 342.314 215.6C342.314 214.896 342.175 214.299 341.898 213.808C341.621 213.317 341.258 212.955 340.81 212.72C340.362 212.475 339.877 212.352 339.354 212.352C338.821 212.352 338.33 212.475 337.882 212.72C337.445 212.955 337.093 213.317 336.826 213.808C336.559 214.299 336.426 214.896 336.426 215.6C336.426 216.315 336.554 216.917 336.81 217.408C337.077 217.899 337.429 218.267 337.866 218.512C338.303 218.747 338.783 218.864 339.306 218.864ZM353.806 220.144C352.985 220.144 352.238 219.957 351.566 219.584C350.905 219.211 350.382 218.683 349.998 218C349.625 217.307 349.438 216.507 349.438 215.6C349.438 214.704 349.63 213.915 350.014 213.232C350.409 212.539 350.942 212.011 351.614 211.648C352.286 211.275 353.038 211.088 353.87 211.088C354.702 211.088 355.454 211.275 356.126 211.648C356.798 212.011 357.326 212.533 357.71 213.216C358.105 213.899 358.302 214.693 358.302 215.6C358.302 216.507 358.099 217.307 357.694 218C357.299 218.683 356.761 219.211 356.078 219.584C355.395 219.957 354.638 220.144 353.806 220.144ZM353.806 218.864C354.329 218.864 354.819 218.741 355.278 218.496C355.737 218.251 356.105 217.883 356.382 217.392C356.67 216.901 356.814 216.304 356.814 215.6C356.814 214.896 356.675 214.299 356.398 213.808C356.121 213.317 355.758 212.955 355.31 212.72C354.862 212.475 354.377 212.352 353.854 212.352C353.321 212.352 352.83 212.475 352.382 212.72C351.945 212.955 351.593 213.317 351.326 213.808C351.059 214.299 350.926 214.896 350.926 215.6C350.926 216.315 351.054 216.917 351.31 217.408C351.577 217.899 351.929 218.267 352.366 218.512C352.803 218.747 353.283 218.864 353.806 218.864ZM367.992 211.232V220H366.536V218.704C366.259 219.152 365.87 219.504 365.368 219.76C364.878 220.005 364.334 220.128 363.736 220.128C363.054 220.128 362.44 219.989 361.896 219.712C361.352 219.424 360.92 218.997 360.6 218.432C360.291 217.867 360.136 217.179 360.136 216.368V211.232H361.576V216.176C361.576 217.04 361.795 217.707 362.232 218.176C362.67 218.635 363.267 218.864 364.024 218.864C364.803 218.864 365.416 218.624 365.864 218.144C366.312 217.664 366.536 216.965 366.536 216.048V211.232H367.992ZM371.907 212.656C372.163 212.155 372.525 211.765 372.995 211.488C373.475 211.211 374.056 211.072 374.739 211.072V212.576H374.355C372.723 212.576 371.907 213.461 371.907 215.232V220H370.451V211.232H371.907V212.656ZM384.957 211.072C386.024 211.072 386.888 211.397 387.549 212.048C388.21 212.688 388.541 213.616 388.541 214.832V220H387.101V215.04C387.101 214.165 386.882 213.499 386.445 213.04C386.008 212.571 385.41 212.336 384.653 212.336C383.885 212.336 383.272 212.576 382.813 213.056C382.365 213.536 382.141 214.235 382.141 215.152V220H380.685V211.232H382.141V212.48C382.429 212.032 382.818 211.685 383.309 211.44C383.81 211.195 384.36 211.072 384.957 211.072ZM398.92 215.28C398.92 215.557 398.904 215.851 398.872 216.16H391.864C391.917 217.024 392.21 217.701 392.744 218.192C393.288 218.672 393.944 218.912 394.712 218.912C395.341 218.912 395.864 218.768 396.28 218.48C396.706 218.181 397.005 217.787 397.176 217.296H398.744C398.509 218.139 398.04 218.827 397.336 219.36C396.632 219.883 395.757 220.144 394.712 220.144C393.88 220.144 393.133 219.957 392.472 219.584C391.821 219.211 391.309 218.683 390.936 218C390.562 217.307 390.376 216.507 390.376 215.6C390.376 214.693 390.557 213.899 390.92 213.216C391.282 212.533 391.789 212.011 392.44 211.648C393.101 211.275 393.858 211.088 394.712 211.088C395.544 211.088 396.28 211.269 396.92 211.632C397.56 211.995 398.05 212.496 398.392 213.136C398.744 213.765 398.92 214.48 398.92 215.28ZM397.416 214.976C397.416 214.421 397.293 213.947 397.048 213.552C396.802 213.147 396.466 212.843 396.04 212.64C395.624 212.427 395.16 212.32 394.648 212.32C393.912 212.32 393.282 212.555 392.76 213.024C392.248 213.493 391.954 214.144 391.88 214.976H397.416ZM412.521 211.232L409.785 220H408.281L406.169 213.04L404.057 220H402.553L399.801 211.232H401.289L403.305 218.592L405.481 211.232H406.969L409.097 218.608L411.081 211.232H412.521ZM417.07 220.144C416.398 220.144 415.796 220.032 415.262 219.808C414.729 219.573 414.308 219.253 413.998 218.848C413.689 218.432 413.518 217.957 413.486 217.424H414.99C415.033 217.861 415.236 218.219 415.598 218.496C415.972 218.773 416.457 218.912 417.054 218.912C417.609 218.912 418.046 218.789 418.366 218.544C418.686 218.299 418.846 217.989 418.846 217.616C418.846 217.232 418.676 216.949 418.334 216.768C417.993 216.576 417.465 216.389 416.75 216.208C416.1 216.037 415.566 215.867 415.15 215.696C414.745 215.515 414.393 215.253 414.094 214.912C413.806 214.56 413.662 214.101 413.662 213.536C413.662 213.088 413.796 212.677 414.062 212.304C414.329 211.931 414.708 211.637 415.198 211.424C415.689 211.2 416.249 211.088 416.878 211.088C417.849 211.088 418.633 211.333 419.23 211.824C419.828 212.315 420.148 212.987 420.19 213.84H418.734C418.702 213.381 418.516 213.013 418.174 212.736C417.844 212.459 417.396 212.32 416.83 212.32C416.308 212.32 415.892 212.432 415.582 212.656C415.273 212.88 415.118 213.173 415.118 213.536C415.118 213.824 415.209 214.064 415.39 214.256C415.582 214.437 415.817 214.587 416.094 214.704C416.382 214.811 416.777 214.933 417.278 215.072C417.908 215.243 418.42 215.413 418.814 215.584C419.209 215.744 419.545 215.989 419.822 216.32C420.11 216.651 420.26 217.083 420.27 217.616C420.27 218.096 420.137 218.528 419.87 218.912C419.604 219.296 419.225 219.6 418.734 219.824C418.254 220.037 417.7 220.144 417.07 220.144ZM423.782 208.16V220H422.326V208.16H423.782ZM434.263 215.28C434.263 215.557 434.247 215.851 434.215 216.16H427.207C427.261 217.024 427.554 217.701 428.087 218.192C428.631 218.672 429.287 218.912 430.055 218.912C430.685 218.912 431.207 218.768 431.623 218.48C432.05 218.181 432.349 217.787 432.519 217.296H434.087C433.853 218.139 433.383 218.827 432.679 219.36C431.975 219.883 431.101 220.144 430.055 220.144C429.223 220.144 428.477 219.957 427.815 219.584C427.165 219.211 426.653 218.683 426.279 218C425.906 217.307 425.719 216.507 425.719 215.6C425.719 214.693 425.901 213.899 426.263 213.216C426.626 212.533 427.133 212.011 427.783 211.648C428.445 211.275 429.202 211.088 430.055 211.088C430.887 211.088 431.623 211.269 432.263 211.632C432.903 211.995 433.394 212.496 433.735 213.136C434.087 213.765 434.263 214.48 434.263 215.28ZM432.759 214.976C432.759 214.421 432.637 213.947 432.391 213.552C432.146 213.147 431.81 212.843 431.383 212.64C430.967 212.427 430.503 212.32 429.991 212.32C429.255 212.32 428.626 212.555 428.103 213.024C427.591 213.493 427.298 214.144 427.223 214.976H432.759ZM437.961 212.432V217.6C437.961 218.027 438.052 218.331 438.233 218.512C438.414 218.683 438.729 218.768 439.177 218.768H440.249V220H438.937C438.126 220 437.518 219.813 437.113 219.44C436.708 219.067 436.505 218.453 436.505 217.6V212.432H435.369V211.232H436.505V209.024H437.961V211.232H440.249V212.432H437.961ZM443.789 212.432V217.6C443.789 218.027 443.88 218.331 444.061 218.512C444.243 218.683 444.557 218.768 445.005 218.768H446.077V220H444.765C443.955 220 443.347 219.813 442.941 219.44C442.536 219.067 442.333 218.453 442.333 217.6V212.432H441.197V211.232H442.333V209.024H443.789V211.232H446.077V212.432H443.789ZM455.841 215.28C455.841 215.557 455.825 215.851 455.793 216.16H448.785C448.839 217.024 449.132 217.701 449.665 218.192C450.209 218.672 450.865 218.912 451.633 218.912C452.263 218.912 452.785 218.768 453.201 218.48C453.628 218.181 453.927 217.787 454.097 217.296H455.665C455.431 218.139 454.961 218.827 454.257 219.36C453.553 219.883 452.679 220.144 451.633 220.144C450.801 220.144 450.055 219.957 449.393 219.584C448.743 219.211 448.231 218.683 447.857 218C447.484 217.307 447.297 216.507 447.297 215.6C447.297 214.693 447.479 213.899 447.841 213.216C448.204 212.533 448.711 212.011 449.361 211.648C450.023 211.275 450.78 211.088 451.633 211.088C452.465 211.088 453.201 211.269 453.841 211.632C454.481 211.995 454.972 212.496 455.313 213.136C455.665 213.765 455.841 214.48 455.841 215.28ZM454.337 214.976C454.337 214.421 454.215 213.947 453.969 213.552C453.724 213.147 453.388 212.843 452.961 212.64C452.545 212.427 452.081 212.32 451.569 212.32C450.833 212.32 450.204 212.555 449.681 213.024C449.169 213.493 448.876 214.144 448.801 214.976H454.337ZM459.219 212.656C459.475 212.155 459.838 211.765 460.307 211.488C460.787 211.211 461.369 211.072 462.051 211.072V212.576H461.667C460.035 212.576 459.219 213.461 459.219 215.232V220H457.763V211.232H459.219V212.656ZM467.454 215.584C467.454 214.688 467.635 213.904 467.998 213.232C468.36 212.549 468.856 212.021 469.486 211.648C470.126 211.275 470.835 211.088 471.614 211.088C472.382 211.088 473.048 211.253 473.614 211.584C474.179 211.915 474.6 212.331 474.878 212.832V211.232H476.35V220H474.878V218.368C474.59 218.88 474.158 219.307 473.582 219.648C473.016 219.979 472.355 220.144 471.598 220.144C470.819 220.144 470.115 219.952 469.486 219.568C468.856 219.184 468.36 218.645 467.998 217.952C467.635 217.259 467.454 216.469 467.454 215.584ZM474.878 215.6C474.878 214.939 474.744 214.363 474.478 213.872C474.211 213.381 473.848 213.008 473.39 212.752C472.942 212.485 472.446 212.352 471.902 212.352C471.358 212.352 470.862 212.48 470.414 212.736C469.966 212.992 469.608 213.365 469.342 213.856C469.075 214.347 468.942 214.923 468.942 215.584C468.942 216.256 469.075 216.843 469.342 217.344C469.608 217.835 469.966 218.213 470.414 218.48C470.862 218.736 471.358 218.864 471.902 218.864C472.446 218.864 472.942 218.736 473.39 218.48C473.848 218.213 474.211 217.835 474.478 217.344C474.744 216.843 474.878 216.261 474.878 215.6ZM483.082 211.072C484.149 211.072 485.013 211.397 485.674 212.048C486.335 212.688 486.666 213.616 486.666 214.832V220H485.226V215.04C485.226 214.165 485.007 213.499 484.57 213.04C484.133 212.571 483.535 212.336 482.778 212.336C482.01 212.336 481.397 212.576 480.938 213.056C480.49 213.536 480.266 214.235 480.266 215.152V220H478.81V211.232H480.266V212.48C480.554 212.032 480.943 211.685 481.434 211.44C481.935 211.195 482.485 211.072 483.082 211.072ZM488.501 215.584C488.501 214.688 488.682 213.904 489.045 213.232C489.407 212.549 489.903 212.021 490.533 211.648C491.173 211.275 491.887 211.088 492.677 211.088C493.359 211.088 493.994 211.248 494.581 211.568C495.167 211.877 495.615 212.288 495.925 212.8V208.16H497.397V220H495.925V218.352C495.637 218.875 495.21 219.307 494.645 219.648C494.079 219.979 493.418 220.144 492.661 220.144C491.882 220.144 491.173 219.952 490.533 219.568C489.903 219.184 489.407 218.645 489.045 217.952C488.682 217.259 488.501 216.469 488.501 215.584ZM495.925 215.6C495.925 214.939 495.791 214.363 495.525 213.872C495.258 213.381 494.895 213.008 494.437 212.752C493.989 212.485 493.493 212.352 492.949 212.352C492.405 212.352 491.909 212.48 491.461 212.736C491.013 212.992 490.655 213.365 490.389 213.856C490.122 214.347 489.989 214.923 489.989 215.584C489.989 216.256 490.122 216.843 490.389 217.344C490.655 217.835 491.013 218.213 491.461 218.48C491.909 218.736 492.405 218.864 492.949 218.864C493.493 218.864 493.989 218.736 494.437 218.48C494.895 218.213 495.258 217.835 495.525 217.344C495.791 216.843 495.925 216.261 495.925 215.6ZM507.227 220.144C506.555 220.144 505.952 220.032 505.419 219.808C504.885 219.573 504.464 219.253 504.155 218.848C503.845 218.432 503.675 217.957 503.643 217.424H505.147C505.189 217.861 505.392 218.219 505.755 218.496C506.128 218.773 506.613 218.912 507.211 218.912C507.765 218.912 508.203 218.789 508.523 218.544C508.843 218.299 509.003 217.989 509.003 217.616C509.003 217.232 508.832 216.949 508.491 216.768C508.149 216.576 507.621 216.389 506.907 216.208C506.256 216.037 505.723 215.867 505.307 215.696C504.901 215.515 504.549 215.253 504.251 214.912C503.963 214.56 503.819 214.101 503.819 213.536C503.819 213.088 503.952 212.677 504.219 212.304C504.485 211.931 504.864 211.637 505.355 211.424C505.845 211.2 506.405 211.088 507.035 211.088C508.005 211.088 508.789 211.333 509.387 211.824C509.984 212.315 510.304 212.987 510.347 213.84H508.891C508.859 213.381 508.672 213.013 508.331 212.736C508 212.459 507.552 212.32 506.987 212.32C506.464 212.32 506.048 212.432 505.739 212.656C505.429 212.88 505.275 213.173 505.275 213.536C505.275 213.824 505.365 214.064 505.547 214.256C505.739 214.437 505.973 214.587 506.251 214.704C506.539 214.811 506.933 214.933 507.435 215.072C508.064 215.243 508.576 215.413 508.971 215.584C509.365 215.744 509.701 215.989 509.979 216.32C510.267 216.651 510.416 217.083 510.427 217.616C510.427 218.096 510.293 218.528 510.027 218.912C509.76 219.296 509.381 219.6 508.891 219.824C508.411 220.037 507.856 220.144 507.227 220.144ZM514.258 212.432V217.6C514.258 218.027 514.349 218.331 514.53 218.512C514.711 218.683 515.026 218.768 515.474 218.768H516.546V220H515.234C514.423 220 513.815 219.813 513.41 219.44C513.005 219.067 512.802 218.453 512.802 217.6V212.432H511.666V211.232H512.802V209.024H514.258V211.232H516.546V212.432H514.258ZM517.766 215.584C517.766 214.688 517.947 213.904 518.31 213.232C518.673 212.549 519.169 212.021 519.798 211.648C520.438 211.275 521.147 211.088 521.926 211.088C522.694 211.088 523.361 211.253 523.926 211.584C524.491 211.915 524.913 212.331 525.19 212.832V211.232H526.662V220H525.19V218.368C524.902 218.88 524.47 219.307 523.894 219.648C523.329 219.979 522.667 220.144 521.91 220.144C521.131 220.144 520.427 219.952 519.798 219.568C519.169 219.184 518.673 218.645 518.31 217.952C517.947 217.259 517.766 216.469 517.766 215.584ZM525.19 215.6C525.19 214.939 525.057 214.363 524.79 213.872C524.523 213.381 524.161 213.008 523.702 212.752C523.254 212.485 522.758 212.352 522.214 212.352C521.67 212.352 521.174 212.48 520.726 212.736C520.278 212.992 519.921 213.365 519.654 213.856C519.387 214.347 519.254 214.923 519.254 215.584C519.254 216.256 519.387 216.843 519.654 217.344C519.921 217.835 520.278 218.213 520.726 218.48C521.174 218.736 521.67 218.864 522.214 218.864C522.758 218.864 523.254 218.736 523.702 218.48C524.161 218.213 524.523 217.835 524.79 217.344C525.057 216.843 525.19 216.261 525.19 215.6ZM536.675 211.232L531.395 224.128H529.891L531.619 219.904L528.083 211.232H529.699L532.451 218.336L535.171 211.232H536.675ZM550.18 211.232V220H548.724V218.704C548.447 219.152 548.057 219.504 547.556 219.76C547.065 220.005 546.521 220.128 545.924 220.128C545.241 220.128 544.628 219.989 544.084 219.712C543.54 219.424 543.108 218.997 542.788 218.432C542.479 217.867 542.324 217.179 542.324 216.368V211.232H543.764V216.176C543.764 217.04 543.983 217.707 544.42 218.176C544.857 218.635 545.455 218.864 546.212 218.864C546.991 218.864 547.604 218.624 548.052 218.144C548.5 217.664 548.724 216.965 548.724 216.048V211.232H550.18ZM554.094 212.848C554.382 212.347 554.809 211.931 555.374 211.6C555.95 211.259 556.617 211.088 557.374 211.088C558.153 211.088 558.857 211.275 559.486 211.648C560.126 212.021 560.628 212.549 560.99 213.232C561.353 213.904 561.534 214.688 561.534 215.584C561.534 216.469 561.353 217.259 560.99 217.952C560.628 218.645 560.126 219.184 559.486 219.568C558.857 219.952 558.153 220.144 557.374 220.144C556.628 220.144 555.966 219.979 555.39 219.648C554.825 219.307 554.393 218.885 554.094 218.384V224.16H552.638V211.232H554.094V212.848ZM560.046 215.584C560.046 214.923 559.913 214.347 559.646 213.856C559.38 213.365 559.017 212.992 558.558 212.736C558.11 212.48 557.614 212.352 557.07 212.352C556.537 212.352 556.041 212.485 555.582 212.752C555.134 213.008 554.772 213.387 554.494 213.888C554.228 214.379 554.094 214.949 554.094 215.6C554.094 216.261 554.228 216.843 554.494 217.344C554.772 217.835 555.134 218.213 555.582 218.48C556.041 218.736 556.537 218.864 557.07 218.864C557.614 218.864 558.11 218.736 558.558 218.48C559.017 218.213 559.38 217.835 559.646 217.344C559.913 216.843 560.046 216.256 560.046 215.584ZM562.907 215.584C562.907 214.688 563.088 213.904 563.451 213.232C563.813 212.549 564.309 212.021 564.939 211.648C565.579 211.275 566.293 211.088 567.083 211.088C567.765 211.088 568.4 211.248 568.987 211.568C569.573 211.877 570.021 212.288 570.331 212.8V208.16H571.803V220H570.331V218.352C570.043 218.875 569.616 219.307 569.051 219.648C568.485 219.979 567.824 220.144 567.067 220.144C566.288 220.144 565.579 219.952 564.939 219.568C564.309 219.184 563.813 218.645 563.451 217.952C563.088 217.259 562.907 216.469 562.907 215.584ZM570.331 215.6C570.331 214.939 570.197 214.363 569.931 213.872C569.664 213.381 569.301 213.008 568.843 212.752C568.395 212.485 567.899 212.352 567.355 212.352C566.811 212.352 566.315 212.48 565.867 212.736C565.419 212.992 565.061 213.365 564.795 213.856C564.528 214.347 564.395 214.923 564.395 215.584C564.395 216.256 564.528 216.843 564.795 217.344C565.061 217.835 565.419 218.213 565.867 218.48C566.315 218.736 566.811 218.864 567.355 218.864C567.899 218.864 568.395 218.736 568.843 218.48C569.301 218.213 569.664 217.835 569.931 217.344C570.197 216.843 570.331 216.261 570.331 215.6ZM573.719 215.584C573.719 214.688 573.901 213.904 574.263 213.232C574.626 212.549 575.122 212.021 575.751 211.648C576.391 211.275 577.101 211.088 577.879 211.088C578.647 211.088 579.314 211.253 579.879 211.584C580.445 211.915 580.866 212.331 581.143 212.832V211.232H582.615V220H581.143V218.368C580.855 218.88 580.423 219.307 579.847 219.648C579.282 219.979 578.621 220.144 577.863 220.144C577.085 220.144 576.381 219.952 575.751 219.568C575.122 219.184 574.626 218.645 574.263 217.952C573.901 217.259 573.719 216.469 573.719 215.584ZM581.143 215.6C581.143 214.939 581.01 214.363 580.743 213.872C580.477 213.381 580.114 213.008 579.655 212.752C579.207 212.485 578.711 212.352 578.167 212.352C577.623 212.352 577.127 212.48 576.679 212.736C576.231 212.992 575.874 213.365 575.607 213.856C575.341 214.347 575.207 214.923 575.207 215.584C575.207 216.256 575.341 216.843 575.607 217.344C575.874 217.835 576.231 218.213 576.679 218.48C577.127 218.736 577.623 218.864 578.167 218.864C578.711 218.864 579.207 218.736 579.655 218.48C580.114 218.213 580.477 217.835 580.743 217.344C581.01 216.843 581.143 216.261 581.143 215.6ZM586.852 212.432V217.6C586.852 218.027 586.942 218.331 587.124 218.512C587.305 218.683 587.62 218.768 588.068 218.768H589.14V220H587.828C587.017 220 586.409 219.813 586.004 219.44C585.598 219.067 585.396 218.453 585.396 217.6V212.432H584.26V211.232H585.396V209.024H586.852V211.232H589.14V212.432H586.852ZM598.904 215.28C598.904 215.557 598.888 215.851 598.856 216.16H591.848C591.901 217.024 592.195 217.701 592.728 218.192C593.272 218.672 593.928 218.912 594.696 218.912C595.325 218.912 595.848 218.768 596.264 218.48C596.691 218.181 596.989 217.787 597.16 217.296H598.728C598.493 218.139 598.024 218.827 597.32 219.36C596.616 219.883 595.741 220.144 594.696 220.144C593.864 220.144 593.117 219.957 592.456 219.584C591.805 219.211 591.293 218.683 590.92 218C590.547 217.307 590.36 216.507 590.36 215.6C590.36 214.693 590.541 213.899 590.904 213.216C591.267 212.533 591.773 212.011 592.424 211.648C593.085 211.275 593.843 211.088 594.696 211.088C595.528 211.088 596.264 211.269 596.904 211.632C597.544 211.995 598.035 212.496 598.376 213.136C598.728 213.765 598.904 214.48 598.904 215.28ZM597.4 214.976C597.4 214.421 597.277 213.947 597.032 213.552C596.787 213.147 596.451 212.843 596.024 212.64C595.608 212.427 595.144 212.32 594.632 212.32C593.896 212.32 593.267 212.555 592.744 213.024C592.232 213.493 591.939 214.144 591.864 214.976H597.4ZM600.282 215.584C600.282 214.688 600.463 213.904 600.826 213.232C601.188 212.549 601.684 212.021 602.314 211.648C602.954 211.275 603.668 211.088 604.458 211.088C605.14 211.088 605.775 211.248 606.362 211.568C606.948 211.877 607.396 212.288 607.706 212.8V208.16H609.178V220H607.706V218.352C607.418 218.875 606.991 219.307 606.426 219.648C605.86 219.979 605.199 220.144 604.442 220.144C603.663 220.144 602.954 219.952 602.314 219.568C601.684 219.184 601.188 218.645 600.826 217.952C600.463 217.259 600.282 216.469 600.282 215.584ZM607.706 215.6C607.706 214.939 607.572 214.363 607.306 213.872C607.039 213.381 606.676 213.008 606.218 212.752C605.77 212.485 605.274 212.352 604.73 212.352C604.186 212.352 603.69 212.48 603.242 212.736C602.794 212.992 602.436 213.365 602.17 213.856C601.903 214.347 601.77 214.923 601.77 215.584C601.77 216.256 601.903 216.843 602.17 217.344C602.436 217.835 602.794 218.213 603.242 218.48C603.69 218.736 604.186 218.864 604.73 218.864C605.274 218.864 605.77 218.736 606.218 218.48C606.676 218.213 607.039 217.835 607.306 217.344C607.572 216.843 607.706 216.261 607.706 215.6ZM612.102 220.096C611.825 220.096 611.59 220 611.398 219.808C611.206 219.616 611.11 219.381 611.11 219.104C611.11 218.827 611.206 218.592 611.398 218.4C611.59 218.208 611.825 218.112 612.102 218.112C612.369 218.112 612.593 218.208 612.774 218.4C612.966 218.592 613.062 218.827 613.062 219.104C613.062 219.381 612.966 219.616 612.774 219.808C612.593 220 612.369 220.096 612.102 220.096Z" fill="white"/>
<defs>
<clipPath id="clip0_2_372">
<rect width="219" height="439" fill="white" transform="translate(835 1)"/>
</clipPath>
</defs>
</svg>
